<svg xmlns="http://www.w3.org/2000/svg" width="612" height="279" viewBox="0 0 612 279"><defs><style>.a{fill:#3f3d56;}.b{fill:#ff6584;}.c,.e{fill:#2aa8fc;}.d{opacity:0.1;}.e{opacity:0.4;}.f{fill:#ccc;}.g{fill:#f2f2f2;}</style></defs><g transform="translate(0 0)"><path class="a" d="M174.863,541.719l-1.05-.237a238.918,238.918,0,0,1,466.048-.636l-1.049.239c-24.782-108.947-120.144-185.036-231.9-185.036C296.613,356.049,199.024,434.134,174.863,541.719Z" transform="translate(-97.137 -266.73)"/><circle class="b" cx="29.264" cy="29.264" r="29.264" transform="translate(454.953 89.168)"/><rect class="a" width="1.078" height="42.564" transform="translate(472.052 235.359)"/><path class="c" d="M910.935,615.068c.069,14.884-10.4,27-10.4,27s-10.583-12.017-10.651-26.9,10.4-27,10.4-27S910.866,600.185,910.935,615.068Z" transform="translate(-427.866 -374.285)"/><path class="d" d="M910.935,615.068c.069,14.884-10.4,27-10.4,27s-10.583-12.017-10.651-26.9,10.4-27,10.4-27S910.866,600.185,910.935,615.068Z" transform="translate(-427.866 -374.285)"/><circle class="e" cx="16.836" cy="16.836" r="16.836" transform="translate(252.846 117.125)"/><circle class="e" cx="11.81" cy="11.81" r="11.81" transform="translate(226.743 130.187)"/><circle class="e" cx="11.81" cy="11.81" r="11.81" transform="translate(100.257 164.115)"/><circle class="e" cx="16.836" cy="16.836" r="16.836" transform="translate(444.073 115.74)"/><path class="a" d="M87.895,692.462a10.844,10.844,0,0,0,4.039,5.463,9.336,9.336,0,0,0-3.305-12.218A10.844,10.844,0,0,0,87.895,692.462Z" transform="translate(-57.383 -419.272)"/><path class="c" d="M85.262,694.636a10.844,10.844,0,0,1,2.81,6.186A9.336,9.336,0,0,1,79,691.993,10.847,10.847,0,0,1,85.262,694.636Z" transform="translate(-53.409 -422.171)"/><path class="a" d="M699.9,692.462a10.844,10.844,0,0,0,4.039,5.463,9.336,9.336,0,0,0-3.305-12.218A10.844,10.844,0,0,0,699.9,692.462Z" transform="translate(-340.001 -419.272)"/><path class="c" d="M697.262,694.636a10.844,10.844,0,0,1,2.81,6.186A9.336,9.336,0,0,1,691,691.993,10.848,10.848,0,0,1,697.262,694.636Z" transform="translate(-336.025 -422.171)"/><path class="a" d="M66.229,441.757,64,438.043,84.8,420.21h53.5v5.2l-19.319,20.805-22.291,4.458Z" transform="translate(-29.518 -193.928)"/><path class="f" d="M190.127,429.681V418.056h-7v3.666l-2.2-2.505-17.833,17.833-2.972,2.972L156.4,454.882l6.687,16.346h34.179V437.792Z" transform="translate(-72.134 -192.934)"/><rect class="g" width="56.47" height="34.179" transform="translate(34.482 244.115)"/><rect class="a" width="11.888" height="10.402" transform="translate(71.261 254.888)"/><rect class="f" width="10.402" height="23.777" transform="translate(56.029 254.517)"/><path class="a" d="M78.112,476.33v-3.715H73.654v3.715h4.458Z" transform="translate(-33.971 -218.098)"/><path class="a" d="M77.74,485.026H73.654v3.715h4.458v-3.715Z" transform="translate(-33.971 -223.822)"/><rect class="a" width="4.458" height="3.715" transform="translate(47.113 254.517)"/><rect class="a" width="4.458" height="3.715" transform="translate(47.113 261.204)"/><path class="a" d="M194.643,477.019V473.3h-4.458v3.715h4.458Z" transform="translate(-87.717 -218.416)"/><path class="a" d="M194.272,485.716h-4.087v3.715h4.458v-3.715Z" transform="translate(-87.717 -224.14)"/><rect class="a" width="4.458" height="3.715" transform="translate(109.898 254.888)"/><rect class="a" width="4.458" height="3.715" transform="translate(109.898 261.576)"/><path class="a" d="M465.229,441.757,463,438.043l20.8-17.833h53.5v5.2l-19.319,20.805-22.291,4.458Z" transform="translate(-213.82 -193.928)"/><path class="f" d="M589.127,429.681V418.056h-7v3.666l-2.2-2.505-17.833,17.833-2.972,2.972L555.4,454.882l6.687,16.346h34.179V437.792Z" transform="translate(-256.471 -192.934)"/><rect class="g" width="56.47" height="34.179" transform="translate(249.189 244.115)"/><rect class="a" width="11.888" height="10.402" transform="translate(285.952 254.888)"/><rect class="f" width="10.402" height="23.777" transform="translate(270.736 254.517)"/><path class="a" d="M477.112,476.33v-3.715h-4.458v3.715h4.458Z" transform="translate(-218.246 -218.098)"/><path class="a" d="M476.74,485.026h-4.086v3.715h4.458v-3.715Z" transform="translate(-218.246 -223.822)"/><rect class="a" width="4.458" height="3.715" transform="translate(261.831 254.517)"/><rect class="a" width="4.458" height="3.715" transform="translate(261.831 261.204)"/><path class="a" d="M593.643,477.019V473.3h-4.458v3.715h4.458Z" transform="translate(-272.053 -218.416)"/><path class="a" d="M593.272,485.716h-4.087v3.715h4.458v-3.715Z" transform="translate(-272.053 -224.14)"/><rect class="a" width="4.458" height="3.715" transform="translate(324.555 254.888)"/><rect class="a" width="4.458" height="3.715" transform="translate(324.555 261.576)"/><path class="a" d="M277.335,325.915l-3.715-2.972,20.8-18.576h52.754v16.347L313,343.748Z" transform="translate(-126.361 -140.461)"/><path class="f" d="M390.537,314.787V304.738h-7V307.2l-2.614-2.832-17.09,18.576-6.687,4.458-10.369,75.754,15.637,15.637h36.341V323.686Z" transform="translate(-160.136 -140.499)"/><rect class="g" width="56.47" height="95.85" transform="translate(147.264 182.444)"/><rect class="f" width="10.402" height="23.405" transform="translate(169.173 254.888)"/><path class="a" d="M289.8,482.536v-3.715h-4.458v3.715H289.8Z" transform="translate(-131.755 -220.96)"/><path class="a" d="M289.429,491.232h-4.087v3.715H289.8v-3.715Z" transform="translate(-131.755 -226.684)"/><rect class="a" width="4.458" height="3.715" transform="translate(161.009 257.861)"/><rect class="a" width="4.458" height="3.715" transform="translate(161.009 264.547)"/><path class="a" d="M346.342,482.536v-3.715h-4.458v3.715h4.458Z" transform="translate(-157.863 -220.96)"/><path class="a" d="M345.971,491.232h-4.087v3.715h4.458v-3.715Z" transform="translate(-157.863 -226.684)"/><rect class="a" width="4.458" height="3.715" transform="translate(191.444 257.861)"/><rect class="a" width="4.458" height="3.715" transform="translate(191.444 264.547)"/><path class="a" d="M404.263,344.628v-3.715H399.8v3.715h4.458Z" transform="translate(-184.608 -157.315)"/><path class="a" d="M403.892,353.325H399.8v3.715h4.458v-3.715Z" transform="translate(-184.608 -163.042)"/><rect class="a" width="4.458" height="3.715" transform="translate(222.62 183.598)"/><rect class="a" width="4.458" height="3.715" transform="translate(222.62 190.283)"/><path class="a" d="M404.263,383.242v-3.715H399.8v3.715h4.458Z" transform="translate(-184.608 -175.133)"/><path class="a" d="M403.892,391.939H399.8v3.715h4.458v-3.715Z" transform="translate(-184.608 -180.861)"/><rect class="a" width="4.458" height="3.715" transform="translate(222.62 204.394)"/><rect class="a" width="4.458" height="3.715" transform="translate(222.62 211.078)"/><path class="a" d="M404.263,421.856v-3.715H399.8v3.715h4.458Z" transform="translate(-184.608 -192.974)"/><path class="a" d="M403.892,430.553H399.8v3.715h4.458v-3.715Z" transform="translate(-184.608 -198.698)"/><rect class="a" width="4.458" height="3.715" transform="translate(222.62 225.167)"/><rect class="a" width="4.458" height="3.715" transform="translate(222.62 231.855)"/><path class="a" d="M404.263,460.47v-3.715H399.8v3.715h4.458Z" transform="translate(-184.608 -210.783)"/><path class="a" d="M403.892,469.167H399.8v3.715h4.458v-3.715Z" transform="translate(-184.608 -216.508)"/><rect class="a" width="4.458" height="3.715" transform="translate(222.62 245.972)"/><rect class="a" width="4.458" height="3.715" transform="translate(222.62 252.659)"/><rect class="a" width="43.095" height="8.916" transform="translate(153.576 187.31)"/><rect class="a" width="43.095" height="8.916" transform="translate(153.576 205.135)"/><rect class="a" width="43.095" height="8.916" transform="translate(153.576 222.959)"/><rect class="a" width="43.095" height="8.916" transform="translate(153.576 240.771)"/><path class="a" d="M680.335,325.915l-3.715-2.972,20.8-18.576h52.754v16.347L716,343.748Z" transform="translate(-312.472 -140.461)"/><path class="f" d="M793.537,314.787V304.738h-7V307.2l-2.614-2.832-17.09,18.576-6.687,4.458-10.369,75.754,15.637,15.637h36.341V323.686Z" transform="translate(-346.238 -140.499)"/><rect class="g" width="56.47" height="95.85" transform="translate(364.161 182.444)"/><rect class="f" width="10.402" height="23.405" transform="translate(386.087 254.888)"/><path class="a" d="M692.8,482.536v-3.715h-4.458v3.715H692.8Z" transform="translate(-317.839 -220.96)"/><path class="a" d="M692.429,491.232h-4.087v3.715H692.8v-3.715Z" transform="translate(-317.839 -226.684)"/><rect class="a" width="4.458" height="3.715" transform="translate(377.926 257.861)"/><rect class="a" width="4.458" height="3.715" transform="translate(377.926 264.547)"/><path class="a" d="M749.342,482.536v-3.715h-4.458v3.715h4.458Z" transform="translate(-343.947 -220.96)"/><path class="a" d="M748.971,491.232h-4.087v3.715h4.458v-3.715Z" transform="translate(-343.947 -226.684)"/><rect class="a" width="4.458" height="3.715" transform="translate(408.36 257.861)"/><rect class="a" width="4.458" height="3.715" transform="translate(408.36 264.547)"/><path class="a" d="M807.263,344.628v-3.715H802.8v3.715h4.458Z" transform="translate(-370.691 -157.315)"/><path class="a" d="M806.892,353.325H802.8v3.715h4.458v-3.715Z" transform="translate(-370.691 -163.042)"/><rect class="a" width="4.458" height="3.715" transform="translate(439.537 183.598)"/><rect class="a" width="4.458" height="3.715" transform="translate(439.537 190.283)"/><path class="a" d="M807.263,383.242v-3.715H802.8v3.715h4.458Z" transform="translate(-370.691 -175.133)"/><path class="a" d="M806.892,391.939H802.8v3.715h4.458v-3.715Z" transform="translate(-370.691 -180.861)"/><rect class="a" width="4.458" height="3.715" transform="translate(439.537 204.394)"/><rect class="a" width="4.458" height="3.715" transform="translate(439.537 211.078)"/><path class="a" d="M807.263,421.856v-3.715H802.8v3.715h4.458Z" transform="translate(-370.691 -192.974)"/><path class="a" d="M806.892,430.553H802.8v3.715h4.458v-3.715Z" transform="translate(-370.691 -198.698)"/><rect class="a" width="4.458" height="3.715" transform="translate(439.537 225.167)"/><rect class="a" width="4.458" height="3.715" transform="translate(439.537 231.855)"/><path class="a" d="M807.263,460.47v-3.715H802.8v3.715h4.458Z" transform="translate(-370.691 -210.783)"/><path class="a" d="M806.892,469.167H802.8v3.715h4.458v-3.715Z" transform="translate(-370.691 -216.508)"/><rect class="a" width="4.458" height="3.715" transform="translate(439.537 245.972)"/><rect class="a" width="4.458" height="3.715" transform="translate(439.537 252.659)"/><rect class="a" width="43.095" height="8.916" transform="translate(370.479 187.31)"/><rect class="a" width="43.095" height="8.916" transform="translate(370.479 205.135)"/><rect class="a" width="43.095" height="8.916" transform="translate(370.479 222.959)"/><rect class="a" width="43.095" height="8.916" transform="translate(370.479 240.771)"/><path class="a" d="M901.335,325.915l-3.715-2.972,20.8-18.576H971.18v16.347L937,343.748Z" transform="translate(-414.593 -140.461)"/><path class="f" d="M1014.537,314.787V304.738h-7V307.2l-2.613-2.832-17.09,18.576-6.687,4.458-10.369,75.754,15.637,15.637h36.343V323.686Z" transform="translate(-448.333 -140.499)"/><rect class="g" width="56.47" height="95.85" transform="translate(483.027 182.444)"/><rect class="f" width="10.402" height="23.405" transform="translate(504.945 254.888)"/><path class="a" d="M913.8,482.536v-3.715h-4.458v3.715H913.8Z" transform="translate(-419.884 -220.96)"/><path class="a" d="M913.429,491.232h-4.087v3.715H913.8v-3.715Z" transform="translate(-419.884 -226.684)"/><rect class="a" width="4.458" height="3.715" transform="translate(496.772 257.861)"/><rect class="a" width="4.458" height="3.715" transform="translate(496.772 264.547)"/><path class="a" d="M970.342,482.536v-3.715h-4.458v3.715h4.458Z" transform="translate(-446.078 -220.96)"/><path class="a" d="M969.971,491.232h-4.087v3.715h4.458v-3.715Z" transform="translate(-446.078 -226.684)"/><rect class="a" width="4.458" height="3.715" transform="translate(527.236 257.861)"/><rect class="a" width="4.458" height="3.715" transform="translate(527.236 264.547)"/><path class="a" d="M1028.261,344.628v-3.715H1023.8v3.715h4.461Z" transform="translate(-472.79 -157.315)"/><path class="a" d="M1027.889,353.325H1023.8v3.715h4.461v-3.715Z" transform="translate(-472.79 -163.042)"/><rect class="a" width="4.458" height="3.715" transform="translate(558.445 183.598)"/><rect class="a" width="4.458" height="3.715" transform="translate(558.445 190.283)"/><path class="a" d="M1028.261,383.242v-3.715H1023.8v3.715h4.461Z" transform="translate(-472.79 -175.133)"/><path class="a" d="M1027.889,391.939H1023.8v3.715h4.461v-3.715Z" transform="translate(-472.79 -180.861)"/><rect class="a" width="4.458" height="3.715" transform="translate(558.445 204.394)"/><rect class="a" width="4.458" height="3.715" transform="translate(558.445 211.078)"/><path class="a" d="M1028.261,421.856v-3.715H1023.8v3.715h4.461Z" transform="translate(-472.79 -192.974)"/><path class="a" d="M1027.889,430.553H1023.8v3.715h4.461v-3.715Z" transform="translate(-472.79 -198.698)"/><rect class="a" width="4.458" height="3.715" transform="translate(558.445 225.167)"/><rect class="a" width="4.458" height="3.715" transform="translate(558.445 231.855)"/><path class="a" d="M1028.261,460.47v-3.715H1023.8v3.715h4.461Z" transform="translate(-472.79 -210.783)"/><path class="a" d="M1027.889,469.167H1023.8v3.715h4.461v-3.715Z" transform="translate(-472.79 -216.508)"/><rect class="a" width="4.458" height="3.715" transform="translate(558.445 245.972)"/><rect class="a" width="4.458" height="3.715" transform="translate(558.445 252.659)"/><rect class="a" width="43.095" height="8.916" transform="translate(489.342 187.31)"/><rect class="a" width="43.095" height="8.916" transform="translate(489.342 205.135)"/><rect class="a" width="43.095" height="8.916" transform="translate(489.342 222.959)"/><rect class="a" width="43.095" height="8.916" transform="translate(489.342 240.771)"/><rect class="a" width="612" height="1.078" transform="translate(0 277.923)"/><rect class="a" width="1.078" height="42.564" transform="translate(135.641 235.359)"/><path class="c" d="M285.935,615.068c.069,14.884-10.4,27-10.4,27s-10.583-12.017-10.651-26.9,10.4-27,10.4-27S285.866,600.185,285.935,615.068Z" transform="translate(-139.266 -374.285)"/><rect class="a" width="1.078" height="42.564" transform="translate(243.292 235.359)"/><path class="c" d="M485.935,615.068c.069,14.884-10.4,27-10.4,27s-10.583-12.017-10.651-26.9,10.4-27,10.4-27S485.866,600.185,485.935,615.068Z" transform="translate(-231.618 -374.285)"/><rect class="a" width="1.078" height="42.564" transform="translate(458.057 235.359)"/><path class="c" d="M884.935,615.068c.069,14.884-10.4,27-10.4,27s-10.583-12.017-10.651-26.9,10.4-27,10.4-27S884.866,600.185,884.935,615.068Z" transform="translate(-415.86 -374.285)"/><ellipse class="c" cx="20.474" cy="4.607" rx="20.474" ry="4.607" transform="translate(295.753 83.447)"/><path class="c" d="M621.413,214.678c0,13.093-23.706,50.107-23.706,50.107S574,227.771,574,214.678a23.706,23.706,0,0,1,47.413,0Z" transform="translate(-282.018 -190.972)"/><circle class="g" cx="13.47" cy="13.47" r="13.47" transform="translate(302.219 10.237)"/></g></svg>