<?xml version="1.0" standalone="no"?><!DOCTYPE svg PUBLIC "-//W3C//DTD SVG 1.1//EN" "http://www.w3.org/Graphics/SVG/1.1/DTD/svg11.dtd"><svg t="1567498989624" class="icon" viewBox="0 0 1024 1024" version="1.1" xmlns="http://www.w3.org/2000/svg" p-id="2025" xmlns:xlink="http://www.w3.org/1999/xlink" width="200" height="200"><defs><style type="text/css"></style></defs><path d="M918.795922 356.854687c-21.798121-51.476314-52.909055-97.631021-92.514092-137.236058-39.605037-39.605037-85.862083-70.818309-137.236058-92.514092C635.727364 104.590046 579.236458 93.128123 520.903458 93.128123s-114.823906 11.461923-168.142315 33.976414c-51.476314 21.798121-97.631021 52.909055-137.236058 92.514092s-70.818309 85.862083-92.514092 137.236058C100.496502 410.173096 89.034579 466.664002 89.034579 524.997002s11.461923 114.823906 33.976414 168.142315c21.798121 51.476314 52.909055 97.631021 92.514092 137.236058 39.605037 39.605037 85.862083 70.818309 137.236058 92.514092 53.21607 22.514491 109.809314 33.976414 168.142315 33.976414s114.823906-11.461923 168.142315-33.976414c51.476314-21.798121 97.631021-52.909055 137.236058-92.514092 39.605037-39.605037 70.818309-85.862083 92.514092-137.236058 22.514491-53.21607 33.976414-109.809314 33.976414-168.142315S941.310414 410.173096 918.795922 356.854687zM520.903458 911.836898c-213.273636 0-386.839896-173.56626-386.839896-386.839896s173.56626-386.839896 386.839896-386.839896 386.839896 173.56626 386.839896 386.839896S734.177094 911.836898 520.903458 911.836898z" p-id="2026"></path><path d="M608.402958 323.389966c-40.526084-26.915051-80.23346-34.385769-117.996402-22.207476-29.88287 9.619828-57.411953 32.134319-79.721767 65.087348-15.657805 23.128523-23.435539 43.493904-24.356586 45.643014-5.935639 15.862483 2.046772 33.56706 17.909254 39.605037 15.862483 5.935639 33.56706-2.046772 39.502698-17.909254 6.447332-16.78353 30.701579-62.938237 65.599041-74.093144 19.341995-6.140316 40.628423-1.228063 65.189686 15.043774l0.614032 0.409354c0.204677 0.102339 22.105137 14.941435 24.970618 38.991005 3.070158 26.301019-18.011593 54.137118-36.330202 72.865081-6.652009 6.447332-60.993804 61.403158-72.865081 148.08395-2.353788 16.78353 9.415151 32.236658 26.198681 34.590446 1.43274 0.204677 2.865481 0.307016 4.195882 0.307016 15.146112 0 28.245453-11.154907 30.394563-26.505697 9.210474-67.236458 52.909055-110.628023 54.648811-112.265441l0.818709-0.818709c40.423746-41.242455 58.537677-82.689586 53.830102-123.318009C655.171697 355.421947 614.747951 327.48351 608.402958 323.389966z" p-id="2027"></path><path d="M513.330402 726.706376m-35.818509 0a35 35 0 1 0 71.637018 0 35 35 0 1 0-71.637018 0Z" p-id="2028"></path></svg>