<svg xmlns="http://www.w3.org/2000/svg" width="16" height="16" viewBox="0 0 16 16">
  <g id="icon_topnav_task" transform="translate(-226 -161)">
    <rect id="矩形_135" data-name="矩形 135" width="16" height="16" transform="translate(226 161)" fill="rgba(255,255,255,0)"/>
    <path id="路径_338" data-name="路径 338" d="M149.847,140.768l-4.588-4.588a.62.62,0,0,0-.875,0l-3,3a6.013,6.013,0,0,0-.685-.037,6.136,6.136,0,0,0-3.845,1.346.619.619,0,0,0-.05.92l3.383,3.383-4.011,4.007a.294.294,0,0,0-.086.182l-.063.693a.3.3,0,0,0,.3.324.141.141,0,0,0,.028,0l.693-.063a.294.294,0,0,0,.182-.086l4.011-4.011,3.383,3.383a.62.62,0,0,0,.92-.05,6.15,6.15,0,0,0,1.307-4.532l3-3A.617.617,0,0,0,149.847,140.768ZM145.9,143.7l-.456.456.071.641a4.837,4.837,0,0,1-.566,2.866l-6.575-6.578a4.745,4.745,0,0,1,.75-.333,4.816,4.816,0,0,1,1.577-.263,4.739,4.739,0,0,1,.538.03l.641.071.456-.456,2.489-2.489,3.566,3.566Z" transform="translate(90.973 26)" fill="rgba(0,0,0,0.65)"/>
  </g>
</svg>
