<svg xmlns="http://www.w3.org/2000/svg" width="26" height="26" viewBox="0 0 26 26"><g transform="translate(-297 -180)"><circle cx="13" cy="13" r="13" transform="translate(297 180)" fill="#4fb9fc"/><path d="M170.5,64h-10a.5.5,0,0,0-.5.5v13a.5.5,0,0,0,.5.5h10a.5.5,0,0,0,.5-.5v-13A.5.5,0,0,0,170.5,64Zm-.625,12.875h-8.75V73.734h1.53a3.016,3.016,0,0,0,5.691,0h1.53V72.75h-2.319l-.081.386a2.016,2.016,0,0,1-3.952,0l-.081-.386h-2.317V65.125h8.75ZM162.5,68.328h6a.125.125,0,0,0,.125-.125v-.75a.125.125,0,0,0-.125-.125h-6a.125.125,0,0,0-.125.125v.75A.125.125,0,0,0,162.5,68.328Zm0,2.5h6a.125.125,0,0,0,.125-.125v-.75a.125.125,0,0,0-.125-.125h-6a.125.125,0,0,0-.125.125v.75A.125.125,0,0,0,162.5,70.828Z" transform="translate(145 122)" fill="#fff"/></g></svg>