<svg xmlns="http://www.w3.org/2000/svg" width="14" height="14" viewBox="0 0 14 14">
  <g id="icon_top_work" transform="translate(-84.233 -53.212)">
    <rect id="矩形_192" data-name="矩形 192" width="14" height="14" transform="translate(84.233 53.212)" fill="rgba(255,255,255,0)" opacity="0"/>
    <path id="路径_378" data-name="路径 378" d="M77.5,140h-13a.508.508,0,0,0-.5.516v8a.508.508,0,0,0,.5.516h5.938v1.806H67.75a.255.255,0,0,0-.25.258v.774a.127.127,0,0,0,.125.129h6.75a.127.127,0,0,0,.125-.129V151.1a.255.255,0,0,0-.25-.258H71.563v-1.806H77.5a.508.508,0,0,0,.5-.516v-8A.508.508,0,0,0,77.5,140Zm-.625,7.871H65.125v-6.71h11.75Z" transform="translate(20.233 -85.788)" fill="#999"/>
  </g>
</svg>
