<svg xmlns="http://www.w3.org/2000/svg" width="18" height="18" viewBox="0 0 18 18"><g transform="translate(-73 -109)"><rect width="18" height="18" transform="translate(73 109)" fill="rgba(255,255,255,0)"/><g transform="translate(-38 -2)"><path d="M320.169,324.735h3.213v3.213a.17.17,0,0,0,.169.169h1.015a.17.17,0,0,0,.169-.169v-3.213h3.213a.17.17,0,0,0,.169-.169v-1.015a.17.17,0,0,0-.169-.169h-3.213v-3.213a.17.17,0,0,0-.169-.169h-1.015a.17.17,0,0,0-.169.169v3.213h-3.213a.17.17,0,0,0-.169.169v1.015A.17.17,0,0,0,320.169,324.735Z" transform="translate(-204.058 -204.058)" fill="#f25c19"/><path d="M127.36,112H112.64a.639.639,0,0,0-.64.64v14.72a.639.639,0,0,0,.64.64h14.72a.639.639,0,0,0,.64-.64V112.64A.639.639,0,0,0,127.36,112Zm-.8,14.56H113.44V113.44h13.12Z" fill="#f25c19"/></g></g></svg>