<svg xmlns="http://www.w3.org/2000/svg" width="14.001" height="14" viewBox="0 0 14.001 14">
  <g id="icon_sidenav_Entering_h" transform="translate(0)">
    <rect id="Rectangle_7" data-name="Rectangle 7" width="14" height="14" transform="translate(0)" fill="none"/>
    <g id="组_105" data-name="组 105" transform="translate(-362.88 -64)">
      <path id="路径_329" data-name="路径 329" d="M814.081,540.275v-1.422H815.5a.143.143,0,0,0,.142-.142v-.853a.143.143,0,0,0-.142-.142h-1.422v-1.422a.143.143,0,0,0-.142-.142h-.853a.143.143,0,0,0-.142.142v1.422h-1.422a.143.143,0,0,0-.142.142v.853a.143.143,0,0,0,.142.142h1.422v1.422a.143.143,0,0,0,.142.142h.853A.143.143,0,0,0,814.081,540.275Z" transform="translate(-439.765 -462.417)" fill="#fff"/>
      <path id="路径_330" data-name="路径 330" d="M363.367,71.119v5.806a.53.53,0,0,0,.52.539h6.742a.129.129,0,0,0,.126-.131v-.947a.129.129,0,0,0-.126-.131h-6.093V72.177c.047.024.1.047.146.067a2.872,2.872,0,0,0,2.286,0,2.943,2.943,0,0,0,.628-.372.01.01,0,0,1,.01,0,2.9,2.9,0,0,0,.628.372,2.872,2.872,0,0,0,2.286,0,2.943,2.943,0,0,0,.628-.372.01.01,0,0,1,.01,0,2.905,2.905,0,0,0,.628.372,2.872,2.872,0,0,0,2.286,0c.048-.022.1-.043.145-.067l0,.727a.124.124,0,0,0,.122.126h.92a.124.124,0,0,0,.122-.126l0-.668h0V71.119a2.981,2.981,0,0,0,.253-.486,3.1,3.1,0,0,0,.234-1.185V67.231a.53.53,0,0,0-.487-.537V64.539a.529.529,0,0,0-.52-.539H363.887a.529.529,0,0,0-.52.539v2.156a.53.53,0,0,0-.487.537v2.216a3.073,3.073,0,0,0,.234,1.185A3.036,3.036,0,0,0,363.367,71.119Zm1.169-5.907h9.677v1.481h-9.677Zm-.487,2.7a.008.008,0,0,1,.008-.008h10.635a.008.008,0,0,1,.008.008v1.535a1.8,1.8,0,0,1-1.775,1.823,1.768,1.768,0,0,1-1.546-.924.259.259,0,0,0-.226-.136h-.01a.261.261,0,0,0-.226.136,1.752,1.752,0,0,1-3.086,0,.263.263,0,0,0-.464,0,1.77,1.77,0,0,1-1.544.921,1.8,1.8,0,0,1-1.775-1.823Z" fill="#fff"/>
    </g>
  </g>
</svg>
