<svg xmlns="http://www.w3.org/2000/svg" width="14" height="14" viewBox="0 0 14 14"><g transform="translate(-20 -432)"><rect width="14" height="14" transform="translate(20 432)" fill="rgba(255,255,255,0)"/><path d="M185.524,83.073h-.357V77.664a4.369,4.369,0,0,0-3.571-4.408v-.619a.6.6,0,1,0-1.19,0v.619a4.369,4.369,0,0,0-3.571,4.408v5.409h-.357a.493.493,0,0,0-.476.509v.509a.124.124,0,0,0,.119.127h3.214a1.67,1.67,0,1,0,3.333,0h3.214a.124.124,0,0,0,.119-.127v-.509A.493.493,0,0,0,185.524,83.073ZM181,84.982a.74.74,0,0,1-.714-.764h1.429A.74.74,0,0,1,181,84.982Zm-3.1-1.909V77.664a3.4,3.4,0,0,1,.906-2.34,2.957,2.957,0,0,1,4.378,0,3.4,3.4,0,0,1,.906,2.34v5.409Z" transform="translate(-154 360)" fill="#fff" opacity="0.65"/></g></svg>