<svg xmlns="http://www.w3.org/2000/svg" width="18" height="18" viewBox="0 0 18 18"><g transform="translate(-1212 -521)"><path d="M147.744,80.872v-.991a.168.168,0,0,0-.17-.165H139.4a.168.168,0,0,0-.17.165v.991a.168.168,0,0,0,.17.165h8.17A.168.168,0,0,0,147.744,80.872Zm-8.34,1.817a.168.168,0,0,0-.17.165v.991a.168.168,0,0,0,.17.165h3.915a.168.168,0,0,0,.17-.165v-.991a.168.168,0,0,0-.17-.165Zm3.064,9.33h-4.936V77.486h11.914v7.1a.168.168,0,0,0,.17.165h1.191a.168.168,0,0,0,.17-.165V76.661A.67.67,0,0,0,150.3,76H136.681a.67.67,0,0,0-.681.661V92.844a.67.67,0,0,0,.681.661h5.787a.168.168,0,0,0,.17-.165V92.183A.168.168,0,0,0,142.468,92.018Zm9.483,1.063-1.985-1.926a3.554,3.554,0,0,0,.757-2.192,3.746,3.746,0,1,0-3.745,3.633,3.813,3.813,0,0,0,2.059-.6l2.015,1.955a.168.168,0,0,0,.119.047.174.174,0,0,0,.119-.047l.66-.64A.16.16,0,0,0,151.951,93.081Zm-4.972-1.806a2.313,2.313,0,1,1,2.383-2.312A2.347,2.347,0,0,1,146.978,91.275Z" transform="translate(1077 445)" fill="#f25c19"/><rect width="18" height="18" transform="translate(1212 521)" fill="rgba(255,255,255,0)"/></g></svg>