<svg xmlns="http://www.w3.org/2000/svg" width="14" height="14" viewBox="0 0 14 14">
  <g id="icon_sidenav_home_n" transform="translate(0)">
    <path id="路径_328" data-name="路径 328" d="M72.409,90.638l-5.967-6.315-.4-.423a.468.468,0,0,0-.686,0l-6.367,6.738a1.077,1.077,0,0,0-.29.752,1.027,1.027,0,0,0,1,1.035h.656V97.75H71.04V92.425h.67a.957.957,0,0,0,.7-.307,1.09,1.09,0,0,0,0-1.48Zm-5.845,5.935h-1.73V93.237h1.73Zm3.365-5.325v5.325H67.552V92.845a.636.636,0,0,0-.618-.654H64.464a.636.636,0,0,0-.618.654v3.728H61.469V91.247H59.987L65.7,85.2l.357.378,5.355,5.667Z" transform="translate(-58.699 -83.75)" fill="#fff" opacity="0.65"/>
  </g>
</svg>
