<svg xmlns="http://www.w3.org/2000/svg" width="14" height="12" viewBox="0 0 14 12">
  <g id="icon_sidenav_Inquiry_h" transform="translate(0 -1)">
    <g id="组_106" data-name="组 106" transform="translate(-322.577 -50.64)">
      <path id="路径_331" data-name="路径 331" d="M336.077,51.64h-13a.508.508,0,0,0-.5.516v8a.508.508,0,0,0,.5.516h5.938v1.806h-2.688a.255.255,0,0,0-.25.258v.774a.127.127,0,0,0,.125.129h6.75a.127.127,0,0,0,.125-.129v-.774a.255.255,0,0,0-.25-.258h-2.688V60.672h5.937a.508.508,0,0,0,.5-.516v-8A.508.508,0,0,0,336.077,51.64Zm-.625,7.871H323.7V52.8h11.75Z" transform="translate(0 0)" fill="#fff"/>
      <path id="路径_332" data-name="路径 332" d="M573.676,144.429h-.751a.14.14,0,0,0-.139.139v.415a.14.14,0,0,0,.139.139h1.042v.473h-1.042a.14.14,0,0,0-.139.139v.415a.14.14,0,0,0,.139.139h1.042v.825a.14.14,0,0,0,.139.139h.723a.14.14,0,0,0,.139-.139v-.825h1.047a.134.134,0,0,0,.136-.141v-.414a.14.14,0,0,0-.139-.139h-1.047v-.473h1.047a.14.14,0,0,0,.139-.139v-.415a.14.14,0,0,0-.139-.139h-.759l1.443-2.663a.132.132,0,0,0,.017-.066.14.14,0,0,0-.139-.139h-.791a.142.142,0,0,0-.124.076l-1.189,2.347-1.186-2.349a.139.139,0,0,0-.124-.076h-.807a.155.155,0,0,0-.065.017.139.139,0,0,0-.056.189Z" transform="translate(-244.886 -88.146)" fill="#fff"/>
    </g>
  </g>
</svg>
