<svg xmlns="http://www.w3.org/2000/svg" width="26" height="26" viewBox="0 0 26 26"><g transform="translate(-297 -180)"><circle cx="13" cy="13" r="13" transform="translate(297 180)" fill="#57bf7a"/><path d="M144.862,79.018a.129.129,0,0,0-.128-.128h-6.165a.129.129,0,0,0-.128.128v.771a.129.129,0,0,0,.128.128h6.165a.129.129,0,0,0,.128-.128Zm-.128,2.183h-6.165a.129.129,0,0,0-.128.128V82.1a.129.129,0,0,0,.128.128h6.165a.129.129,0,0,0,.128-.128V81.33A.129.129,0,0,0,144.734,81.2Zm-3.211,2.312h-2.954a.129.129,0,0,0-.128.128v.771a.129.129,0,0,0,.128.128h2.954a.129.129,0,0,0,.128-.128v-.771A.129.129,0,0,0,141.523,83.514Zm-.771,4.945h-3.6v-11.3h8.991v5.523a.129.129,0,0,0,.128.128h.9a.129.129,0,0,0,.128-.128V76.514a.513.513,0,0,0-.514-.514H136.514a.513.513,0,0,0-.514.514V89.1a.513.513,0,0,0,.514.514h4.238a.129.129,0,0,0,.128-.128v-.9A.129.129,0,0,0,140.752,88.459Zm5.728-1.194a2.312,2.312,0,1,0-3.108,0,3.155,3.155,0,0,0-1.593,2.6.129.129,0,0,0,.128.133h.772a.13.13,0,0,0,.128-.122,2.121,2.121,0,0,1,4.235,0,.129.129,0,0,0,.128.122h.772a.128.128,0,0,0,.128-.133A3.149,3.149,0,0,0,146.481,87.264Zm-1.554-3a1.284,1.284,0,1,1-1.284,1.284A1.284,1.284,0,0,1,144.927,84.268Z" transform="translate(168 110)" fill="#fff"/></g></svg>