<svg id="icon_topnav_bell" xmlns="http://www.w3.org/2000/svg" width="16" height="16" viewBox="0 0 16 16">
  <rect id="Rectangle_19" data-name="Rectangle 19" width="16" height="16" fill="rgba(255,255,255,0)"/>
  <path id="路径_337" data-name="路径 337" d="M187.429,84.655H187V78.473a5.061,5.061,0,0,0-4.286-5.038v-.707a.714.714,0,1,0-1.429,0v.707A5.061,5.061,0,0,0,177,78.473v6.182h-.429a.576.576,0,0,0-.571.582v.582a.145.145,0,0,0,.143.145H180a2,2,0,1,0,4,0h3.857a.145.145,0,0,0,.143-.145v-.582A.576.576,0,0,0,187.429,84.655ZM182,86.836a.865.865,0,0,1-.857-.873h1.714A.865.865,0,0,1,182,86.836Zm-3.714-2.182V78.473a3.791,3.791,0,0,1,1.088-2.675,3.669,3.669,0,0,1,5.254,0,3.791,3.791,0,0,1,1.087,2.675v6.182Z" transform="translate(-174 -72)" fill="rgba(0,0,0,0.65)"/>
</svg>
