<svg xmlns="http://www.w3.org/2000/svg" width="14" height="16" viewBox="0 0 14 16">
  <g id="icon_topnav_store_h" transform="translate(-1644 -25)">
    <rect id="矩形_204" data-name="矩形 204" width="14" height="16" transform="translate(1644 25)" fill="rgba(255,255,255,0)"/>
    <path id="路径_335" data-name="路径 335" d="M125.475,114.8V112.56a.559.559,0,0,0-.56-.56h-11.83a.559.559,0,0,0-.56.56V114.8a.56.56,0,0,0-.525.558v2.3a3.14,3.14,0,0,0,.525,1.738v6.038a.561.561,0,0,0,.56.56h11.83a.559.559,0,0,0,.56-.56V119.4a3.061,3.061,0,0,0,.273-.506,3.128,3.128,0,0,0,.252-1.232v-2.3A.56.56,0,0,0,125.475,114.8Zm-11.69-1.542h10.43v1.54h-10.43Zm6.335,11.482h-2.24V122.92h2.24Zm4.095,0H121.24V122.36a.559.559,0,0,0-.56-.56h-3.36a.559.559,0,0,0-.56.56v2.382h-2.975V120.5c.051.025.1.049.158.07a3.2,3.2,0,0,0,2.464,0,3.2,3.2,0,0,0,.677-.387.011.011,0,0,1,.011,0,3.2,3.2,0,0,0,3.141.387,3.2,3.2,0,0,0,.677-.387.011.011,0,0,1,.01,0,3.2,3.2,0,0,0,3.141.387c.052-.023.1-.045.157-.07v4.239Zm.525-7.077a1.917,1.917,0,0,1-3.579.935.28.28,0,0,0-.243-.142h-.01a.282.282,0,0,0-.243.142,1.922,1.922,0,0,1-3.327,0,.288.288,0,0,0-.5,0,1.917,1.917,0,0,1-3.577-.938v-1.6a.008.008,0,0,1,.009-.009h11.462a.008.008,0,0,1,.009.009Z" transform="translate(1532 -86)" fill="#f25c19"/>
  </g>
</svg>
