<svg xmlns="http://www.w3.org/2000/svg" width="14" height="14" viewBox="0 0 14 14"><g transform="translate(-23 -381)"><rect width="14" height="14" transform="translate(23 381)" fill="rgba(255,255,255,0)"/><path d="M144.808,79.018a.128.128,0,0,0-.128-.128h-6.128a.128.128,0,0,0-.128.128v.771a.128.128,0,0,0,.128.128h6.128a.128.128,0,0,0,.128-.128Zm-.128,2.183h-6.128a.128.128,0,0,0-.128.128V82.1a.128.128,0,0,0,.128.128h6.128a.128.128,0,0,0,.128-.128V81.33A.128.128,0,0,0,144.681,81.2Zm-3.191,2.312h-2.936a.128.128,0,0,0-.128.128v.771a.128.128,0,0,0,.128.128h2.936a.128.128,0,0,0,.128-.128v-.771A.128.128,0,0,0,141.489,83.514Zm-.766,4.945h-3.574v-11.3h8.936v5.523a.128.128,0,0,0,.128.128h.894a.128.128,0,0,0,.128-.128V76.514a.512.512,0,0,0-.511-.514H136.511a.512.512,0,0,0-.511.514V89.1a.512.512,0,0,0,.511.514h4.213a.128.128,0,0,0,.128-.128v-.9A.128.128,0,0,0,140.723,88.459Zm5.694-1.194a2.3,2.3,0,1,0-3.089,0,3.158,3.158,0,0,0-1.583,2.6.129.129,0,0,0,.128.133h.768a.129.129,0,0,0,.128-.122,2.108,2.108,0,0,1,4.21,0A.128.128,0,0,0,147.1,90h.768a.128.128,0,0,0,.128-.133A3.152,3.152,0,0,0,146.417,87.264Zm-1.545-3a1.284,1.284,0,1,1-1.277,1.284A1.28,1.28,0,0,1,144.872,84.268Z" transform="translate(-112 305)" fill="#fff"/></g></svg>