<svg xmlns="http://www.w3.org/2000/svg" width="14" height="14" viewBox="0 0 14 14">
  <g id="icon_top_serve" transform="translate(-84.233 -53.212)">
    <rect id="矩形_192" data-name="矩形 192" width="14" height="14" transform="translate(84.233 53.212)" fill="rgba(255,255,255,0)" opacity="0"/>
    <path id="路径_376" data-name="路径 376" d="M190.829,76.875h-3.659a.124.124,0,0,0-.122.125v.5a.493.493,0,0,0,.488.5h2.927a.493.493,0,0,0,.488-.5V77A.124.124,0,0,0,190.829,76.875ZM189,64a5.065,5.065,0,0,0-5,5.125,5.148,5.148,0,0,0,2.5,4.439v1.811a.493.493,0,0,0,.488.5h4.024a.493.493,0,0,0,.488-.5V73.564a5.148,5.148,0,0,0,2.5-4.439A5.065,5.065,0,0,0,189,64Zm1.95,8.591-.547.325V74.75h-2.8V72.916l-.547-.325a4.016,4.016,0,0,1-1.953-3.466,3.9,3.9,0,1,1,7.8,0A4.016,4.016,0,0,1,190.95,72.591Z" transform="translate(-97.767 -10.788)" fill="#999"/>
  </g>
</svg>
