<svg xmlns="http://www.w3.org/2000/svg" width="14" height="14" viewBox="0 0 14 14">
  <g id="icon_sidenav_supplier_n" transform="translate(-1)" opacity="0.65">
    <rect id="Rectangle_7" data-name="Rectangle 7" width="14" height="14" transform="translate(1)" fill="none"/>
    <path id="路径_334" data-name="路径 334" d="M124.461,122.265a5.277,5.277,0,0,0-1.512-1.057,3.5,3.5,0,1,0-4.406,0,5.255,5.255,0,0,0-3.045,4.625.14.14,0,0,0,.14.143h.98a.139.139,0,0,0,.14-.135,3.992,3.992,0,0,1,7.98,0,.139.139,0,0,0,.14.135h.98a.14.14,0,0,0,.14-.143A5.2,5.2,0,0,0,124.461,122.265Zm-3.713-1.538a2.24,2.24,0,0,1-.023-4.48,2.253,2.253,0,0,1,1.592.64,2.24,2.24,0,0,1-1.57,3.839Zm-4.384-1.778a4.412,4.412,0,0,1,.051-1.276.141.141,0,0,0-.079-.154,2.24,2.24,0,0,1,.943-4.284,2.237,2.237,0,0,1,1.5.6,2.29,2.29,0,0,1,.357.427.14.14,0,0,0,.163.056,4.342,4.342,0,0,1,.968-.217.141.141,0,0,0,.11-.2,3.5,3.5,0,1,0-5.334,4.3,5.261,5.261,0,0,0-1.514,1.057,5.2,5.2,0,0,0-1.536,3.57.14.14,0,0,0,.14.143h.982a.139.139,0,0,0,.14-.135,3.994,3.994,0,0,1,3-3.731.14.14,0,0,0,.1-.152Z" transform="translate(-110.998 -111.977)" fill="#fff"/>
  </g>
</svg>
