<svg xmlns="http://www.w3.org/2000/svg" width="26" height="26" viewBox="0 0 26 26"><g transform="translate(-297 -180)"><path d="M13,0A13,13,0,1,1,0,13,13,13,0,0,1,13,0Z" transform="translate(297 180)" fill="#fdb337"/><path d="M144.862,79.789v-.771a.129.129,0,0,0-.128-.128h-6.165a.129.129,0,0,0-.128.128v.771a.129.129,0,0,0,.128.128h6.165A.129.129,0,0,0,144.862,79.789ZM138.569,81.2a.129.129,0,0,0-.128.128V82.1a.129.129,0,0,0,.128.128h2.954a.129.129,0,0,0,.128-.128V81.33a.129.129,0,0,0-.128-.128Zm2.312,7.257h-3.725v-11.3h8.991v5.523a.129.129,0,0,0,.128.128h.9a.129.129,0,0,0,.128-.128V76.514a.513.513,0,0,0-.514-.514H136.514a.513.513,0,0,0-.514.514V89.1a.513.513,0,0,0,.514.514h4.367a.129.129,0,0,0,.128-.128v-.9A.129.129,0,0,0,140.881,88.459Zm7.155.827-1.5-1.5a2.828,2.828,0,1,0-.7.655l1.52,1.52a.125.125,0,0,0,.09.037.129.129,0,0,0,.09-.037l.5-.5A.127.127,0,0,0,148.036,89.286Zm-3.752-1.4a1.8,1.8,0,1,1,1.8-1.8A1.8,1.8,0,0,1,144.284,87.881Z" transform="translate(168 110)" fill="#fff"/></g></svg>