<svg xmlns="http://www.w3.org/2000/svg" width="16" height="18" viewBox="0 0 16 18"><defs><style>.a{fill:#999;}</style></defs><path class="a" d="M175.273,119.92h-1.545v-5.04a2.894,2.894,0,0,0-2.909-2.88h-5.636a2.894,2.894,0,0,0-2.909,2.88v5.04h-1.545a.723.723,0,0,0-.727.72v8.64a.723.723,0,0,0,.727.72h14.545a.723.723,0,0,0,.727-.72v-8.64A.723.723,0,0,0,175.273,119.92Zm-6.636,5.332v1.193a.181.181,0,0,1-.182.18h-.909a.181.181,0,0,1-.182-.18v-1.193a1.075,1.075,0,0,1-.455-.877,1.091,1.091,0,0,1,2.182,0A1.075,1.075,0,0,1,168.636,125.253Zm3.455-5.332h-8.182v-5.04a1.267,1.267,0,0,1,1.273-1.26h5.636a1.267,1.267,0,0,1,1.273,1.26Z" transform="translate(-160 -112)"/></svg>