<svg xmlns="http://www.w3.org/2000/svg" width="16" height="18" viewBox="0 0 16 18"><defs><style>.a{fill:#999;}</style></defs><g transform="translate(0 0.12)"><g transform="translate(0 -0.12)"><ellipse class="a" cx="4.999" cy="5" rx="4.999" ry="5" transform="translate(3)"/><path class="a" d="M8,0c4.418,0,8,3.981,8,8.892-.023.1-16.01.18-16,0C0,3.981,3.581,0,8,0Z" transform="translate(0 9)"/></g><path class="a" d="M8,0a8.188,8.188,0,0,1,8,8.365c0,.527,0-.287,0,.613-.006-.016-16.019.057-16,0a4.282,4.282,0,0,0,0-.613A8.188,8.188,0,0,1,8,0Z" transform="translate(0 8.88)"/></g></svg>