<svg xmlns="http://www.w3.org/2000/svg" width="16" height="18" viewBox="0 0 16 18"><defs><style>.a{fill:#999;}.b{fill:#fff;}</style></defs><g transform="translate(0 0)"><path class="a" d="M17.9,3.118,10.548.853a1.306,1.306,0,0,0-.652,0L2.547,3.118a.477.477,0,0,0-.327.414v9.438a.71.71,0,0,0,.273.506l7.455,5.255a.482.482,0,0,0,.273.08.476.476,0,0,0,.273-.08l7.455-5.255a.7.7,0,0,0,.273-.506V3.533A.466.466,0,0,0,17.9,3.118Z" transform="translate(-2.22 -0.812)"/><path class="b" d="M13.063,5.562H11.879A.35.35,0,0,0,11.6,5.7L8.364,10.159,6.977,8.25A.342.342,0,0,0,6.7,8.109H5.516a.172.172,0,0,0-.14.272l2.71,3.731a.344.344,0,0,0,.557,0L13.2,5.836A.173.173,0,0,0,13.063,5.562Z" transform="translate(-1.057 0.438)"/></g></svg>