<?xml version="1.0" standalone="no"?><!DOCTYPE svg PUBLIC "-//W3C//DTD SVG 1.1//EN" "http://www.w3.org/Graphics/SVG/1.1/DTD/svg11.dtd"><svg t="1567409682912" class="icon" viewBox="0 0 1024 1024" version="1.1" xmlns="http://www.w3.org/2000/svg" p-id="2010" xmlns:xlink="http://www.w3.org/1999/xlink" width="200" height="200"><defs><style type="text/css"></style></defs><path d="M768 401.664l-225.834667 225.834667a42.666667 42.666667 0 0 1-60.330666 0l-128-128a42.666667 42.666667 0 0 1 60.330666-60.330667L512 537.002667l268.501333-268.501334C807.381333 241.621333 853.333333 260.650667 853.333333 298.666667v327.637333a213.333333 213.333333 0 0 1-107.52 185.173333l-212.650666 121.6a42.666667 42.666667 0 0 1-42.325334 0l-212.693333-121.6A213.333333 213.333333 0 0 1 170.666667 626.346667V170.666667a42.666667 42.666667 0 0 1 30.933333-41.045334A1125.290667 1125.290667 0 0 1 512 85.333333c103.552 0 207.061333 14.805333 310.4 44.288a42.666667 42.666667 0 0 1-23.466667 82.090667A1040.042667 1040.042667 0 0 0 512 170.666667c-85.248 0-170.581333 10.88-256 32.64v422.997333a128 128 0 0 0 64.512 111.104L512 846.848l191.488-109.44A128 128 0 0 0 768 626.346667V401.664z" p-id="2011" fill="#ffffff"></path></svg>