<svg xmlns="http://www.w3.org/2000/svg" width="13" height="13" viewBox="0 0 13 13"><defs><style>.a{fill:#999;}</style></defs><path class="a" d="M71.429,90.146l-5.541-5.863-.371-.393a.434.434,0,0,0-.637,0l-5.912,6.257a1,1,0,0,0-.27.7.954.954,0,0,0,.931.961h.609V96.75h9.92V91.805h.622a.888.888,0,0,0,.65-.285,1.012,1.012,0,0,0,0-1.374ZM66,95.657H64.4v-3.1H66Zm3.125-4.945v4.945H66.92V92.2a.591.591,0,0,0-.574-.607H64.052a.591.591,0,0,0-.574.607v3.462H61.271V90.712H59.895L65.2,85.1l.331.351L70.5,90.712Z" transform="translate(-58.699 -83.75)"/></svg>