<svg xmlns="http://www.w3.org/2000/svg" width="11" height="13" viewBox="0 0 11 13"><defs><style>.a{fill:#999;}</style></defs><g transform="translate(-140.415 -66.747)"><path class="a" d="M150.565,70.245a5.3,5.3,0,0,0-1.181-1.69,5.489,5.489,0,0,0-1.748-1.137,5.68,5.68,0,0,0-4.273,0,5.514,5.514,0,0,0-1.748,1.137,5.31,5.31,0,0,0-1.181,1.69A5.135,5.135,0,0,0,140,72.317a6.832,6.832,0,0,0,.741,3.049,9.649,9.649,0,0,0,1.641,2.31,13.182,13.182,0,0,0,2.785,2.235.66.66,0,0,0,.662,0,13.182,13.182,0,0,0,2.785-2.235,9.621,9.621,0,0,0,1.641-2.31A6.781,6.781,0,0,0,151,72.319,5.135,5.135,0,0,0,150.565,70.245ZM145.5,78.88c-.974-.612-4.436-3.036-4.436-6.561a4.16,4.16,0,0,1,1.3-3.014,4.559,4.559,0,0,1,6.281,0,4.155,4.155,0,0,1,1.3,3.012C149.935,75.844,146.474,78.267,145.5,78.88Z" transform="translate(0.415 -0.253)"/><path class="a" d="M338.571,263a2.571,2.571,0,1,0,2.571,2.571A2.571,2.571,0,0,0,338.571,263Zm1.157,3.728a1.636,1.636,0,1,1,.479-1.157A1.63,1.63,0,0,1,339.728,266.728Z" transform="translate(-192.585 -193.253)"/></g></svg>