<svg xmlns="http://www.w3.org/2000/svg" width="12" height="12" viewBox="0 0 12 12"><defs><style>.a{fill:#999;}</style></defs><g transform="translate(-85.233 -54.212)"><path class="a" d="M96.043,65.36c.641-.483,1.142-1.032,1.142-1.527a1.341,1.341,0,0,0-.53-.891,8.226,8.226,0,0,0-.97-.782,10.421,10.421,0,0,0-1.068-.664,2.092,2.092,0,0,0-.912-.32A.851.851,0,0,0,93,61.6a2.775,2.775,0,0,0-.255.486l-.043.1a2.22,2.22,0,0,1-.2.409l.08-.028a3.409,3.409,0,0,1-.869-.474,8.193,8.193,0,0,1-2.37-2.381,3.4,3.4,0,0,1-.473-.872l-.027.079a.985.985,0,0,1,.151-.087l.085-.04c.049-.024.09-.041.17-.077l.1-.043a2.724,2.724,0,0,0,.484-.255.857.857,0,0,0,.422-.711,2.118,2.118,0,0,0-.318-.913,10.486,10.486,0,0,0-.66-1.072,8.284,8.284,0,0,0-.78-.975,1.339,1.339,0,0,0-.89-.532c-.494,0-1.041.5-1.522,1.147a3.691,3.691,0,0,0-.847,2.068,5.288,5.288,0,0,0,.943,2.484,16.969,16.969,0,0,0,2.229,2.829l.282.283a16.9,16.9,0,0,0,2.821,2.242,5.24,5.24,0,0,0,2.475.948,3.656,3.656,0,0,0,2.06-.852Zm-7.027-3.221A16.122,16.122,0,0,1,86.9,59.461a4.7,4.7,0,0,1-.817-2.034,2.937,2.937,0,0,1,.654-1.521,3.927,3.927,0,0,1,.563-.628,1.092,1.092,0,0,1,.309-.208,6.428,6.428,0,0,1,1,1.2,9.437,9.437,0,0,1,.568.929,2.09,2.09,0,0,1,.215.512c0-.041-.032-.011-.1.031a3.252,3.252,0,0,1-.387.185l-.076.033a2.785,2.785,0,0,0-.437.224.746.746,0,0,0-.386.643,2.74,2.74,0,0,0,.624,1.364,9.079,9.079,0,0,0,2.6,2.607,2.713,2.713,0,0,0,1.359.627.754.754,0,0,0,.644-.391,3.175,3.175,0,0,0,.255-.511,3.267,3.267,0,0,1,.184-.388.417.417,0,0,1,.087-.115c.019.025.181.087.451.229a9.552,9.552,0,0,1,.925.569,4.565,4.565,0,0,1,1.2,1.06,2.513,2.513,0,0,0-.211.254,4.035,4.035,0,0,1-.626.566,2.916,2.916,0,0,1-1.514.656,4.666,4.666,0,0,1-2.026-.82,16.031,16.031,0,0,1-2.667-2.121l-.274-.274Z" transform="translate(0 0)"/><path class="a" d="M528.006,217.789a.407.407,0,0,0,.328-.472,2.1,2.1,0,0,0-.917-1.4,2.26,2.26,0,0,0-1.66-.34.407.407,0,1,0,.141.8,1.461,1.461,0,0,1,1.073.217,1.293,1.293,0,0,1,.567.86.4.4,0,0,0,.4.336A.286.286,0,0,0,528.006,217.789Zm1.677-.718a.407.407,0,0,0,.328-.472,3.44,3.44,0,0,0-1.5-2.284,3.722,3.722,0,0,0-2.733-.558.407.407,0,0,0,.141.8,2.921,2.921,0,0,1,2.146.436,2.631,2.631,0,0,1,1.151,1.747.405.405,0,0,0,.4.336.4.4,0,0,0,.07-.006Z" transform="translate(-434.623 -157.474)"/><path class="a" d="M509.428,88.618a.407.407,0,0,0,.327-.472A5.383,5.383,0,0,0,507.4,84.57a5.848,5.848,0,0,0-4.3-.877.407.407,0,0,0,.141.8,5.051,5.051,0,0,1,3.711.755,4.574,4.574,0,0,1,2,3.039.4.4,0,0,0,.468.33Z" transform="translate(-412.529 -28.967)"/></g></svg>