<?xml version="1.0" standalone="no"?><!DOCTYPE svg PUBLIC "-//W3C//DTD SVG 1.1//EN" "http://www.w3.org/Graphics/SVG/1.1/DTD/svg11.dtd"><svg class="icon" width="200px" height="189.63px" viewBox="0 0 1080 1024" version="1.1" xmlns="http://www.w3.org/2000/svg"><path fill="#ffffff" d="M986.246752 935.07518c0 26.154359-22.742921 47.475847-50.77357 47.475847H95.577124c-27.518934 0-50.034425-20.468629-50.887285-45.997557l0.113715-1.762576a22.060633 22.060633 0 0 0-0.113715-1.990006c1.194003-190.926818 211.907163-345.97668 470.778456-345.976679 259.610439 0 470.778456 155.959578 470.778457 347.568684v0.682287zM263.021877 293.440533a252.787562 252.787562 0 0 1 252.446418-252.446419 252.787562 252.787562 0 0 1 252.446419 252.446419 252.730705 252.730705 0 0 1-252.446419 252.446419 252.730705 252.730705 0 0 1-252.446418-252.446419z m377.077623 264.613881c99.386563-47.020988 168.752471-147.544697 168.752471-264.613881A293.667962 293.667962 0 0 0 515.468295 0.113715a293.667962 293.667962 0 0 0-293.383675 293.326818c0 117.069184 69.422765 217.592893 168.866185 264.613881-222.08462 42.415547-387.198223 194.793115-387.198223 376.338479v0.682287c0 48.783565 41.221544 88.469961 91.824542 88.469962h839.896058c50.602998 0 91.710827-39.686396 91.710827-88.469962v-0.682287c0-181.545364-165.113604-333.922932-387.084509-376.338479z" /></svg>